<svg xmlns="http://www.w3.org/2000/svg" viewBox="0 0 100 100" width="100%" height="100%">
  <!-- Rounded Orange Box -->
  <rect x="5" y="5" width="90" height="90" rx="28" fill="#FF8C42" />
  
  <!-- House Outline (White) -->
  <path d="M 50 22 L 24 44 L 24 78 L 76 78 L 76 44 Z" fill="none" stroke="#FFFFFF" stroke-width="6" stroke-linejoin="round" stroke-linecap="round" />
  
  <!-- Paw Print inside House (White) -->
  <g transform="translate(14, 15)">
    <!-- Main pad -->
    <path d="M 36 47 C 36 41, 31 38, 36 33 C 41 38, 31 41, 36 47 Z" />
    <path d="M 36 50 C 31 50, 27 46, 27 42 C 27 38, 32 37, 36 37 C 40 37, 45 38, 45 42 C 45 46, 41 50, 36 50 Z" fill="#FFFFFF" />
    
    <!-- Toe 1 -->
    <circle cx="21" cy="33" r="5" fill="#FFFFFF" />
    <!-- Toe 2 -->
    <circle cx="31" cy="24" r="5.5" fill="#FFFFFF" />
    <!-- Toe 3 -->
    <circle cx="43" cy="24" r="5.5" fill="#FFFFFF" />
    <!-- Toe 4 -->
    <circle cx="53" cy="33" r="5" fill="#FFFFFF" />
  </g>
</svg>
